<svg xmlns="http://www.w3.org/2000/svg" viewBox="0 0 800 200" fill="none">
  <!-- BAZ Logo — Horizontal Wordmark (Monochrome White)
       For dark/colored backgrounds, headers, nav bars
  -->
  
  <!-- B letterform -->
  <g transform="translate(0, 20) scale(0.5)">
    <rect x="0" y="0" width="8" height="272" rx="4" fill="#ffffff"/>
    <rect x="0" y="0" width="89" height="8" rx="4" fill="#ffffff"/>
    <rect x="0" y="89" width="89" height="8" rx="4" fill="#ffffff"/>
    <rect x="81" y="0" width="8" height="97" rx="4" fill="#ffffff"/>
    <path d="M 89 0 Q 144 0 144 48.5 Q 144 97 89 97" fill="#ffffff"/>
    <rect x="81" y="185" width="8" height="8" rx="4" fill="#ffffff"/>
    <path d="M 89 97 Q 155 97 155 169 Q 155 272 89 272" fill="#ffffff" opacity="0.9"/>
  </g>
  
  <!-- A -->
  <g transform="translate(88, 20) scale(0.5)">
    <path d="M 0 272 L 72 0 L 144 272 H 120 L 105 210 H 39 L 24 272 Z M 48 144 L 72 72 L 96 144 Z" fill="#ffffff"/>
  </g>
  
  <!-- Z -->
  <g transform="translate(170, 20) scale(0.5)">
    <rect x="0" y="0" width="117" height="8" rx="4" fill="#ffffff"/>
    <rect x="0" y="264" width="117" height="8" rx="4" fill="#ffffff"/>
    <rect x="109" y="0" width="8" height="272" rx="4" fill="#ffffff" opacity="0.6"/>
    <line x1="0" y1="8" x2="109" y2="264" stroke="#ffffff" stroke-width="8" stroke-linecap="round"/>
  </g>
  
  <!-- Tagline -->
  <text x="260" y="105" font-family="'Inter', 'Helvetica Neue', sans-serif" font-size="11" font-weight="300" letter-spacing="0.35em" fill="#ffffff" opacity="0.6" text-transform="uppercase">GROWTH PARTNER</text>
  
  <!-- Separator -->
  <rect x="260" y="115" width="58" height="2" rx="1" fill="#ffffff" opacity="0.377"/>
  
  <!-- Subtitle -->
  <text x="260" y="140" font-family="'JetBrains Mono', monospace" font-size="8" font-weight="400" letter-spacing="0.12em" fill="#ffffff" opacity="0.4">STRATEGY · CREATIVE · MEDIA · REVENUE</text>
</svg>