<?xml version="1.0" encoding="UTF-8"?>
<svg xmlns="http://www.w3.org/2000/svg" viewBox="0 0 512 128" width="512" height="128" fill="none">
  <rect width="512" height="128" rx="21" fill="#0a0a0d"/>
  
    <rect x="8" y="8" width="51" height="51" rx="14" fill="#0a0a0d"/>
    <rect x="18" y="19" width="3" height="29" rx="2" fill="#b87adb"/>
    <rect x="18" y="19" width="21" height="3" rx="2" fill="#b87adb"/>
    <rect x="35" y="19" width="3" height="13" rx="2" fill="#b87adb"/>
    <path d="M 38 19 Q 46 19 46 26 Q 46 32 38 32" fill="#b87adb"/>
    <rect x="18" y="32" width="21" height="3" rx="2" fill="#b87adb"/>
    <rect x="35" y="32" width="3" height="16" rx="2" fill="#b87adb"/>
    <path d="M 38 32 Q 48 32 48 40 Q 48 48 38 48" fill="#b87adb"/>
  
    <rect x="47" y="16" width="2" height="82" rx="1" fill="#b87adb" opacity="1"/>
    <rect x="47" y="16" width="27" height="2" rx="1" fill="#b87adb"/>
    <rect x="47" y="43" width="27" height="2" rx="1" fill="#b87adb"/>
    <rect x="71" y="16" width="2" height="29" rx="1" fill="#b87adb"/>
    <path d="M 74 16 Q 90 16 90 31 Q 90 45 74 45" fill="#b87adb"/>
    <rect x="71" y="72" width="2" height="2" rx="1" fill="#b87adb"/>
    <path d="M 74 45 Q 94 45 94 67 Q 94 98 74 98" fill="#b87adb" opacity="0.9"/>
    <g transform="translate(100, 16)">
      <path d="M 0 82 L 22 0 L 43 82 H 36 L 32 63 H 12 L 7 82 Z M 14 43 L 22 22 L 29 43 Z" fill="#b87adb"/>
    </g>
    <g transform="translate(149, 16)">
      <rect x="0" y="0" width="35" height="2" rx="1" fill="#b87adb"/>
      <rect x="0" y="79" width="35" height="2" rx="1" fill="#b87adb"/>
      <rect x="33" y="0" width="2" height="82" rx="1" fill="#b87adb" opacity="0.6"/>
      <line x1="0" y1="2" x2="33" y2="79" stroke="#b87adb" stroke-width="2" stroke-linecap="round"/>
    </g>
</svg>
