<?xml version="1.0" encoding="UTF-8"?>
<svg xmlns="http://www.w3.org/2000/svg" viewBox="0 0 512 512" width="512" height="512" fill="none">
  <rect width="512" height="512" rx="89" fill="#0a0a0d"/>
  <rect x="55" y="55" width="402" height="3" rx="2" fill="#faf9fa" opacity="0.233"/>
  
    <rect x="55" y="120" width="8" height="272" rx="4" fill="#faf9fa" opacity="0.9"/>
    <rect x="55" y="120" width="89" height="8" rx="4" fill="#faf9fa"/>
    <rect x="55" y="209" width="89" height="8" rx="4" fill="#faf9fa"/>
    <rect x="136" y="120" width="8" height="97" rx="4" fill="#faf9fa"/>
    <path d="M 144 120 Q 199 120 199 169 Q 199 217 144 217" fill="#faf9fa"/>
    <rect x="136" y="305" width="8" height="8" rx="4" fill="#faf9fa"/>
    <path d="M 144 217 Q 210 217 210 289 Q 210 392 144 392" fill="#faf9fa" opacity="0.9"/>
    <g transform="translate(230, 120)">
      <path d="M 0 272 L 72 0 L 144 272 H 120 L 105 210 H 39 L 24 272 Z M 48 144 L 72 72 L 96 144 Z" fill="#faf9fa"/>
    </g>
    <g transform="translate(395, 120)">
      <rect x="0" y="0" width="117" height="8" rx="4" fill="#faf9fa"/>
      <rect x="0" y="264" width="117" height="8" rx="4" fill="#faf9fa"/>
      <rect x="109" y="0" width="8" height="272" rx="4" fill="#faf9fa" opacity="0.6"/>
      <line x1="0" y1="8" x2="109" y2="264" stroke="#faf9fa" stroke-width="8" stroke-linecap="round"/>
    </g>
  <rect x="55" y="454" width="402" height="3" rx="2" fill="#faf9fa" opacity="0.233"/>
</svg>
