<?xml version="1.0" encoding="UTF-8"?>
<svg xmlns="http://www.w3.org/2000/svg" viewBox="0 0 1920 1080" width="1920" height="1080" fill="none">
  <rect width="1920" height="1080" fill="#ffffff"/>
  <rect x="55" y="55" width="1810" height="2" fill="#0a0a0d" opacity="0.377"/>
  
    <rect x="55" y="55" width="2" height="54" rx="1" fill="#0a0a0d" opacity="1"/>
    <rect x="55" y="55" width="18" height="2" rx="1" fill="#0a0a0d"/>
    <rect x="55" y="73" width="18" height="2" rx="1" fill="#0a0a0d"/>
    <rect x="71" y="55" width="2" height="19" rx="1" fill="#0a0a0d"/>
    <path d="M 73 55 Q 84 55 84 65 Q 84 74 73 74" fill="#0a0a0d"/>
    <rect x="71" y="92" width="2" height="2" rx="1" fill="#0a0a0d"/>
    <path d="M 73 74 Q 86 74 86 89 Q 86 109 73 109" fill="#0a0a0d" opacity="0.9"/>
    <g transform="translate(90, 55)">
      <path d="M 0 54 L 14 0 L 29 54 H 24 L 21 42 H 8 L 5 54 Z M 10 29 L 14 14 L 19 29 Z" fill="#0a0a0d"/>
    </g>
    <g transform="translate(123, 55)">
      <rect x="0" y="0" width="23" height="2" rx="1" fill="#0a0a0d"/>
      <rect x="0" y="53" width="23" height="2" rx="1" fill="#0a0a0d"/>
      <rect x="22" y="0" width="2" height="54" rx="1" fill="#0a0a0d" opacity="0.6"/>
      <line x1="0" y1="2" x2="22" y2="53" stroke="#0a0a0d" stroke-width="2" stroke-linecap="round"/>
    </g>
  <rect x="55" y="1025" width="1810" height="2" fill="#0a0a0d" opacity="0.377"/>
</svg>
