<?xml version="1.0" encoding="UTF-8"?>
<svg xmlns="http://www.w3.org/2000/svg" viewBox="0 0 1920 1080" width="1920" height="1080" fill="none">
  <defs>
    <radialGradient id="pres-glow" cx="50%" cy="40%" r="45%"><stop offset="0%" stop-color="#0a0a0d" stop-opacity="0.08"/><stop offset="61.8%" stop-color="#0a0a0d" stop-opacity="0.02"/><stop offset="100%" stop-color="#ffffff" stop-opacity="0"/></radialGradient>
  </defs>
  <rect width="1920" height="1080" fill="#ffffff"/>
  <rect width="1920" height="1080" fill="url(#pres-glow)"/>
  <rect x="55" y="55" width="1810" height="2" fill="#0a0a0d" opacity="0.377"/>
  
    <rect x="660" y="330" width="10" height="340" rx="5" fill="#0a0a0d" opacity="1"/>
    <rect x="660" y="330" width="111" height="10" rx="5" fill="#0a0a0d"/>
    <rect x="660" y="441" width="111" height="10" rx="5" fill="#0a0a0d"/>
    <rect x="761" y="330" width="10" height="121" rx="5" fill="#0a0a0d"/>
    <path d="M 771 330 Q 840 330 840 391 Q 840 451 771 451" fill="#0a0a0d"/>
    <rect x="761" y="561" width="10" height="10" rx="5" fill="#0a0a0d"/>
    <path d="M 771 451 Q 854 451 854 541 Q 854 670 771 670" fill="#0a0a0d" opacity="0.9"/>
    <g transform="translate(879, 330)">
      <path d="M 0 340 L 90 0 L 180 340 H 150 L 131 263 H 49 L 30 340 Z M 60 180 L 90 90 L 120 180 Z" fill="#0a0a0d"/>
    </g>
    <g transform="translate(1085, 330)">
      <rect x="0" y="0" width="146" height="10" rx="5" fill="#0a0a0d"/>
      <rect x="0" y="330" width="146" height="10" rx="5" fill="#0a0a0d"/>
      <rect x="136" y="0" width="10" height="340" rx="5" fill="#0a0a0d" opacity="0.6"/>
      <line x1="0" y1="10" x2="136" y2="330" stroke="#0a0a0d" stroke-width="10" stroke-linecap="round"/>
    </g>
  <rect x="55" y="1025" width="1810" height="2" fill="#0a0a0d" opacity="0.377"/>
  <text x="960" y="730" text-anchor="middle" font-family="Inter, -apple-system, sans-serif" font-size="28" fill="#0a0a0d" opacity="0.55">The growth partner for ambitious businesses.</text>
</svg>
