<?xml version="1.0" encoding="UTF-8"?>
<svg xmlns="http://www.w3.org/2000/svg" viewBox="0 0 32 32" fill="none">
  <rect width="32" height="32" rx="8" fill="url(#grad)"/>
  <defs>
    <linearGradient id="grad" x1="0" y1="0" x2="32" y2="32">
      <stop offset="0%" stop-color="#6C3FE0"/>
      <stop offset="100%" stop-color="#FF6B35"/>
    </linearGradient>
  </defs>
  <path d="M8 8h4v4H8V8zm6 0h4v4h-4V8zm6 0h4v4h-4V8zM8 14h4v4H8v-4zm6 0h4v4h-4v-4zm6 0h4v4h-4v-4zM8 20h4v4H8v-4zm6 0h4v4h-4v-4zm6 0h4v4h-4v-4z" fill="white" opacity="0.9"/>
  <path d="M7 7h18v18H7V7zm2 2v14h14V9H9z" fill="white" opacity="0.3"/>
</svg>