<?xml version="1.0" encoding="UTF-8"?>
<svg xmlns="http://www.w3.org/2000/svg" viewBox="0 0 1584 396" width="1584" height="396" fill="none">
  <rect width="1584" height="396" fill="#0a0a0d"/>
  <rect x="55" y="0" width="1474" height="2" fill="#b87adb" opacity="0.377"/>
  
    <rect x="651" y="108" width="5" height="160" rx="2" fill="#b87adb" opacity="1"/>
    <rect x="651" y="108" width="52" height="5" rx="2" fill="#b87adb"/>
    <rect x="651" y="160" width="52" height="5" rx="2" fill="#b87adb"/>
    <rect x="699" y="108" width="5" height="57" rx="2" fill="#b87adb"/>
    <path d="M 703 108 Q 736 108 736 137 Q 736 165 703 165" fill="#b87adb"/>
    <rect x="699" y="217" width="5" height="5" rx="2" fill="#b87adb"/>
    <path d="M 703 165 Q 742 165 742 207 Q 742 268 703 268" fill="#b87adb" opacity="0.9"/>
    <g transform="translate(754, 108)">
      <path d="M 0 160 L 42 0 L 85 160 H 71 L 62 124 H 23 L 14 160 Z M 28 85 L 42 42 L 56 85 Z" fill="#b87adb"/>
    </g>
    <g transform="translate(851, 108)">
      <rect x="0" y="0" width="69" height="5" rx="2" fill="#b87adb"/>
      <rect x="0" y="155" width="69" height="5" rx="2" fill="#b87adb"/>
      <rect x="64" y="0" width="5" height="160" rx="2" fill="#b87adb" opacity="0.6"/>
      <line x1="0" y1="5" x2="64" y2="155" stroke="#b87adb" stroke-width="5" stroke-linecap="round"/>
    </g>
  <rect x="55" y="394" width="1474" height="2" fill="#b87adb" opacity="0.377"/>
  <text x="792" y="308" text-anchor="middle" font-family="Inter, -apple-system, sans-serif" font-size="18" fill="#b87adb" opacity="0.55">The growth partner for ambitious businesses.</text>
</svg>
