<?xml version="1.0" encoding="UTF-8"?>
<svg xmlns="http://www.w3.org/2000/svg" viewBox="0 0 1500 500" width="1500" height="500" fill="none">
  <defs><linearGradient id="tw-grad" x1="0" y1="0" x2="1500" y2="500" gradientUnits="userSpaceOnUse"><stop offset="0%" stop-color="#b87adb" stop-opacity="0.06"/><stop offset="61.8%" stop-color="#0a0a0d" stop-opacity="0"/><stop offset="100%" stop-color="#b87adb" stop-opacity="0.03"/></linearGradient></defs>
  <rect width="1500" height="500" fill="#0a0a0d"/>
  <rect width="1500" height="500" fill="url(#tw-grad)"/>
  <rect x="55" y="0" width="1390" height="2" fill="#b87adb" opacity="0.377"/>
  
    <rect x="591" y="145" width="5" height="180" rx="3" fill="#b87adb" opacity="1"/>
    <rect x="591" y="145" width="59" height="5" rx="3" fill="#b87adb"/>
    <rect x="591" y="204" width="59" height="5" rx="3" fill="#b87adb"/>
    <rect x="645" y="145" width="5" height="64" rx="3" fill="#b87adb"/>
    <path d="M 650 145 Q 686 145 686 177 Q 686 209 650 209" fill="#b87adb"/>
    <rect x="645" y="267" width="5" height="5" rx="3" fill="#b87adb"/>
    <path d="M 650 209 Q 694 209 694 257 Q 694 325 650 325" fill="#b87adb" opacity="0.9"/>
    <g transform="translate(707, 145)">
      <path d="M 0 180 L 48 0 L 95 180 H 79 L 69 139 H 26 L 16 180 Z M 32 95 L 48 48 L 64 95 Z" fill="#b87adb"/>
    </g>
    <g transform="translate(816, 145)">
      <rect x="0" y="0" width="77" height="5" rx="3" fill="#b87adb"/>
      <rect x="0" y="175" width="77" height="5" rx="3" fill="#b87adb"/>
      <rect x="72" y="0" width="5" height="180" rx="3" fill="#b87adb" opacity="0.6"/>
      <line x1="0" y1="5" x2="72" y2="175" stroke="#b87adb" stroke-width="5" stroke-linecap="round"/>
    </g>
  <rect x="55" y="498" width="1390" height="2" fill="#b87adb" opacity="0.377"/>
  <text x="750" y="370" text-anchor="middle" font-family="Inter, -apple-system, sans-serif" font-size="21" fill="#b87adb" opacity="0.55">The growth partner for ambitious businesses.</text>
</svg>
