<?xml version="1.0" encoding="UTF-8"?>
<svg xmlns="http://www.w3.org/2000/svg" viewBox="0 0 2560 1440" width="2560" height="1440" fill="none">
  <rect width="2560" height="1440" fill="#b87adb"/>
  <rect x="55" y="423" width="2450" height="2" fill="#ffffff" opacity="0.377"/>
  
    <rect x="1121" y="535" width="5" height="180" rx="3" fill="#ffffff" opacity="1"/>
    <rect x="1121" y="535" width="59" height="5" rx="3" fill="#ffffff"/>
    <rect x="1121" y="594" width="59" height="5" rx="3" fill="#ffffff"/>
    <rect x="1175" y="535" width="5" height="64" rx="3" fill="#ffffff"/>
    <path d="M 1180 535 Q 1216 535 1216 567 Q 1216 599 1180 599" fill="#ffffff"/>
    <rect x="1175" y="657" width="5" height="5" rx="3" fill="#ffffff"/>
    <path d="M 1180 599 Q 1224 599 1224 647 Q 1224 715 1180 715" fill="#ffffff" opacity="0.9"/>
    <g transform="translate(1237, 535)">
      <path d="M 0 180 L 48 0 L 95 180 H 79 L 69 139 H 26 L 16 180 Z M 32 95 L 48 48 L 64 95 Z" fill="#ffffff"/>
    </g>
    <g transform="translate(1346, 535)">
      <rect x="0" y="0" width="77" height="5" rx="3" fill="#ffffff"/>
      <rect x="0" y="175" width="77" height="5" rx="3" fill="#ffffff"/>
      <rect x="72" y="0" width="5" height="180" rx="3" fill="#ffffff" opacity="0.6"/>
      <line x1="0" y1="5" x2="72" y2="175" stroke="#ffffff" stroke-width="5" stroke-linecap="round"/>
    </g>
  <rect x="55" y="844" width="2450" height="2" fill="#ffffff" opacity="0.377"/>
  <text x="1280" y="755" text-anchor="middle" font-family="Inter, -apple-system, sans-serif" font-size="21" fill="#ffffff" opacity="0.55">The growth partner for ambitious businesses.</text>
</svg>
