<?xml version="1.0" encoding="UTF-8"?>
<svg xmlns="http://www.w3.org/2000/svg" viewBox="0 0 512 512" width="512" height="512" fill="none">
  <defs>
    <clipPath id="spiral-clip"><rect width="512" height="512" rx="89"/></clipPath>
  </defs>
  <rect width="512" height="512" rx="89" fill="#0a0a0d"/>
  <g clip-path="url(#spiral-clip)" opacity="0.08">
    <path d="M 256 256 Q 256 148 318 148 Q 382 148 382 212 Q 382 276 318 276 Q 218 276 218 194 Q 218 108 318 108 Q 404 108 404 194 Q 404 306 296 306 Q 170 306 170 194 Q 170 68 296 68" fill="none" stroke="#b87adb" stroke-width="1.5"/>
    <path d="M 256 256 Q 364 256 364 318 Q 364 382 300 382 Q 236 382 236 318 Q 236 218 318 218 Q 404 218 404 294" fill="none" stroke="#b87adb" stroke-width="1" opacity="0.5"/>
  </g>
</svg>
