<?xml version="1.0" encoding="UTF-8"?>
<svg xmlns="http://www.w3.org/2000/svg" viewBox="0 0 512 512" width="512" height="512" fill="none">
  <rect width="512" height="512" fill="#0a0a0d"/>
    <circle cx="0" cy="0" r="1" fill="#b87adb" opacity="0.04"/>
    <circle cx="60" cy="0" r="1" fill="#b87adb" opacity="0.04"/>
    <circle cx="119" cy="0" r="1" fill="#b87adb" opacity="0.04"/>
    <circle cx="179" cy="0" r="1" fill="#b87adb" opacity="0.04"/>
    <circle cx="238" cy="0" r="1" fill="#b87adb" opacity="0.04"/>
    <circle cx="298" cy="0" r="1" fill="#b87adb" opacity="0.04"/>
    <circle cx="357" cy="0" r="1" fill="#b87adb" opacity="0.04"/>
    <circle cx="417" cy="0" r="1" fill="#b87adb" opacity="0.04"/>
    <circle cx="476" cy="0" r="1" fill="#b87adb" opacity="0.04"/>
    <circle cx="536" cy="0" r="1" fill="#b87adb" opacity="0.04"/>
    <circle cx="30" cy="51" r="1" fill="#b87adb" opacity="0.04"/>
    <circle cx="89" cy="51" r="1" fill="#b87adb" opacity="0.04"/>
    <circle cx="149" cy="51" r="1" fill="#b87adb" opacity="0.04"/>
    <circle cx="208" cy="51" r="1" fill="#b87adb" opacity="0.04"/>
    <circle cx="268" cy="51" r="1" fill="#b87adb" opacity="0.04"/>
    <circle cx="327" cy="51" r="1" fill="#b87adb" opacity="0.04"/>
    <circle cx="387" cy="51" r="1" fill="#b87adb" opacity="0.04"/>
    <circle cx="446" cy="51" r="1" fill="#b87adb" opacity="0.04"/>
    <circle cx="506" cy="51" r="1" fill="#b87adb" opacity="0.04"/>
    <circle cx="0" cy="102" r="1" fill="#b87adb" opacity="0.04"/>
    <circle cx="60" cy="102" r="1" fill="#b87adb" opacity="0.04"/>
    <circle cx="119" cy="102" r="1" fill="#b87adb" opacity="0.04"/>
    <circle cx="179" cy="102" r="1" fill="#b87adb" opacity="0.04"/>
    <circle cx="238" cy="102" r="1" fill="#b87adb" opacity="0.04"/>
    <circle cx="298" cy="102" r="1" fill="#b87adb" opacity="0.04"/>
    <circle cx="357" cy="102" r="1" fill="#b87adb" opacity="0.04"/>
    <circle cx="417" cy="102" r="1" fill="#b87adb" opacity="0.04"/>
    <circle cx="476" cy="102" r="1" fill="#b87adb" opacity="0.04"/>
    <circle cx="536" cy="102" r="1" fill="#b87adb" opacity="0.04"/>
    <circle cx="30" cy="153" r="1" fill="#b87adb" opacity="0.04"/>
    <circle cx="89" cy="153" r="1" fill="#b87adb" opacity="0.04"/>
    <circle cx="149" cy="153" r="1" fill="#b87adb" opacity="0.04"/>
    <circle cx="208" cy="153" r="1" fill="#b87adb" opacity="0.04"/>
    <circle cx="268" cy="153" r="1" fill="#b87adb" opacity="0.04"/>
    <circle cx="327" cy="153" r="1" fill="#b87adb" opacity="0.04"/>
    <circle cx="387" cy="153" r="1" fill="#b87adb" opacity="0.04"/>
    <circle cx="446" cy="153" r="1" fill="#b87adb" opacity="0.04"/>
    <circle cx="506" cy="153" r="1" fill="#b87adb" opacity="0.04"/>
    <circle cx="0" cy="204" r="1" fill="#b87adb" opacity="0.04"/>
    <circle cx="60" cy="204" r="1" fill="#b87adb" opacity="0.04"/>
    <circle cx="119" cy="204" r="1" fill="#b87adb" opacity="0.04"/>
    <circle cx="179" cy="204" r="1" fill="#b87adb" opacity="0.04"/>
    <circle cx="238" cy="204" r="1" fill="#b87adb" opacity="0.04"/>
    <circle cx="298" cy="204" r="1" fill="#b87adb" opacity="0.04"/>
    <circle cx="357" cy="204" r="1" fill="#b87adb" opacity="0.04"/>
    <circle cx="417" cy="204" r="1" fill="#b87adb" opacity="0.04"/>
    <circle cx="476" cy="204" r="1" fill="#b87adb" opacity="0.04"/>
    <circle cx="536" cy="204" r="1" fill="#b87adb" opacity="0.04"/>
    <circle cx="30" cy="255" r="1" fill="#b87adb" opacity="0.04"/>
    <circle cx="89" cy="255" r="1" fill="#b87adb" opacity="0.04"/>
    <circle cx="149" cy="255" r="1" fill="#b87adb" opacity="0.04"/>
    <circle cx="208" cy="255" r="1" fill="#b87adb" opacity="0.04"/>
    <circle cx="268" cy="255" r="1" fill="#b87adb" opacity="0.04"/>
    <circle cx="327" cy="255" r="1" fill="#b87adb" opacity="0.04"/>
    <circle cx="387" cy="255" r="1" fill="#b87adb" opacity="0.04"/>
    <circle cx="446" cy="255" r="1" fill="#b87adb" opacity="0.04"/>
    <circle cx="506" cy="255" r="1" fill="#b87adb" opacity="0.04"/>
    <circle cx="0" cy="306" r="1" fill="#b87adb" opacity="0.04"/>
    <circle cx="60" cy="306" r="1" fill="#b87adb" opacity="0.04"/>
    <circle cx="119" cy="306" r="1" fill="#b87adb" opacity="0.04"/>
    <circle cx="179" cy="306" r="1" fill="#b87adb" opacity="0.04"/>
    <circle cx="238" cy="306" r="1" fill="#b87adb" opacity="0.04"/>
    <circle cx="298" cy="306" r="1" fill="#b87adb" opacity="0.04"/>
    <circle cx="357" cy="306" r="1" fill="#b87adb" opacity="0.04"/>
    <circle cx="417" cy="306" r="1" fill="#b87adb" opacity="0.04"/>
    <circle cx="476" cy="306" r="1" fill="#b87adb" opacity="0.04"/>
    <circle cx="536" cy="306" r="1" fill="#b87adb" opacity="0.04"/>
    <circle cx="30" cy="357" r="1" fill="#b87adb" opacity="0.04"/>
    <circle cx="89" cy="357" r="1" fill="#b87adb" opacity="0.04"/>
    <circle cx="149" cy="357" r="1" fill="#b87adb" opacity="0.04"/>
    <circle cx="208" cy="357" r="1" fill="#b87adb" opacity="0.04"/>
    <circle cx="268" cy="357" r="1" fill="#b87adb" opacity="0.04"/>
    <circle cx="327" cy="357" r="1" fill="#b87adb" opacity="0.04"/>
    <circle cx="387" cy="357" r="1" fill="#b87adb" opacity="0.04"/>
    <circle cx="446" cy="357" r="1" fill="#b87adb" opacity="0.04"/>
    <circle cx="506" cy="357" r="1" fill="#b87adb" opacity="0.04"/>
    <circle cx="0" cy="408" r="1" fill="#b87adb" opacity="0.04"/>
    <circle cx="60" cy="408" r="1" fill="#b87adb" opacity="0.04"/>
    <circle cx="119" cy="408" r="1" fill="#b87adb" opacity="0.04"/>
    <circle cx="179" cy="408" r="1" fill="#b87adb" opacity="0.04"/>
    <circle cx="238" cy="408" r="1" fill="#b87adb" opacity="0.04"/>
    <circle cx="298" cy="408" r="1" fill="#b87adb" opacity="0.04"/>
    <circle cx="357" cy="408" r="1" fill="#b87adb" opacity="0.04"/>
    <circle cx="417" cy="408" r="1" fill="#b87adb" opacity="0.04"/>
    <circle cx="476" cy="408" r="1" fill="#b87adb" opacity="0.04"/>
    <circle cx="536" cy="408" r="1" fill="#b87adb" opacity="0.04"/>
    <circle cx="30" cy="459" r="1" fill="#b87adb" opacity="0.04"/>
    <circle cx="89" cy="459" r="1" fill="#b87adb" opacity="0.04"/>
    <circle cx="149" cy="459" r="1" fill="#b87adb" opacity="0.04"/>
    <circle cx="208" cy="459" r="1" fill="#b87adb" opacity="0.04"/>
    <circle cx="268" cy="459" r="1" fill="#b87adb" opacity="0.04"/>
    <circle cx="327" cy="459" r="1" fill="#b87adb" opacity="0.04"/>
    <circle cx="387" cy="459" r="1" fill="#b87adb" opacity="0.04"/>
    <circle cx="446" cy="459" r="1" fill="#b87adb" opacity="0.04"/>
    <circle cx="506" cy="459" r="1" fill="#b87adb" opacity="0.04"/>
    <circle cx="0" cy="510" r="1" fill="#b87adb" opacity="0.04"/>
    <circle cx="60" cy="510" r="1" fill="#b87adb" opacity="0.04"/>
    <circle cx="119" cy="510" r="1" fill="#b87adb" opacity="0.04"/>
    <circle cx="179" cy="510" r="1" fill="#b87adb" opacity="0.04"/>
    <circle cx="238" cy="510" r="1" fill="#b87adb" opacity="0.04"/>
    <circle cx="298" cy="510" r="1" fill="#b87adb" opacity="0.04"/>
    <circle cx="357" cy="510" r="1" fill="#b87adb" opacity="0.04"/>
    <circle cx="417" cy="510" r="1" fill="#b87adb" opacity="0.04"/>
    <circle cx="476" cy="510" r="1" fill="#b87adb" opacity="0.04"/>
    <circle cx="536" cy="510" r="1" fill="#b87adb" opacity="0.04"/>
</svg>
