<?xml version="1.0" encoding="UTF-8"?>
<svg xmlns="http://www.w3.org/2000/svg" viewBox="0 0 200 200" width="200" height="200" fill="none">
  <rect width="200" height="200" fill="#b87adb"/>
    <circle cx="26" cy="26" r="1" fill="#ffffff" opacity="0.06"/>
    <circle cx="42" cy="26" r="1" fill="#ffffff" opacity="0.06"/>
    <circle cx="68" cy="26" r="1" fill="#ffffff" opacity="0.06"/>
    <circle cx="110" cy="26" r="1" fill="#ffffff" opacity="0.06"/>
    <circle cx="178" cy="26" r="1" fill="#ffffff" opacity="0.06"/>
    <circle cx="26" cy="42" r="1" fill="#ffffff" opacity="0.06"/>
    <circle cx="42" cy="42" r="1" fill="#ffffff" opacity="0.06"/>
    <circle cx="68" cy="42" r="1" fill="#ffffff" opacity="0.06"/>
    <circle cx="110" cy="42" r="1" fill="#ffffff" opacity="0.06"/>
    <circle cx="178" cy="42" r="1" fill="#ffffff" opacity="0.06"/>
    <circle cx="26" cy="68" r="1" fill="#ffffff" opacity="0.06"/>
    <circle cx="42" cy="68" r="1" fill="#ffffff" opacity="0.06"/>
    <circle cx="68" cy="68" r="1" fill="#ffffff" opacity="0.06"/>
    <circle cx="110" cy="68" r="1" fill="#ffffff" opacity="0.06"/>
    <circle cx="178" cy="68" r="1" fill="#ffffff" opacity="0.06"/>
    <circle cx="26" cy="110" r="1" fill="#ffffff" opacity="0.06"/>
    <circle cx="42" cy="110" r="1" fill="#ffffff" opacity="0.06"/>
    <circle cx="68" cy="110" r="1" fill="#ffffff" opacity="0.06"/>
    <circle cx="110" cy="110" r="1" fill="#ffffff" opacity="0.06"/>
    <circle cx="178" cy="110" r="1" fill="#ffffff" opacity="0.06"/>
    <circle cx="26" cy="178" r="1" fill="#ffffff" opacity="0.06"/>
    <circle cx="42" cy="178" r="1" fill="#ffffff" opacity="0.06"/>
    <circle cx="68" cy="178" r="1" fill="#ffffff" opacity="0.06"/>
    <circle cx="110" cy="178" r="1" fill="#ffffff" opacity="0.06"/>
    <circle cx="178" cy="178" r="1" fill="#ffffff" opacity="0.06"/>
</svg>
