<?xml version="1.0" encoding="UTF-8"?>
<svg xmlns="http://www.w3.org/2000/svg" viewBox="0 0 200 200" width="200" height="200" fill="none">
  <rect width="200" height="200" fill="#b87adb"/>
  <rect x="20" y="30" width="2" height="40" rx="1" fill="#ffffff" opacity="0.03"/>
  <rect x="20" y="30" width="18" height="2" rx="1" fill="#ffffff" opacity="0.03"/>
  <rect x="36" y="30" width="2" height="15" rx="1" fill="#ffffff" opacity="0.03"/>
  <rect x="20" y="45" width="18" height="2" rx="1" fill="#ffffff" opacity="0.03"/>
  <rect x="36" y="45" width="2" height="25" rx="1" fill="#ffffff" opacity="0.03"/>
    <circle cx="13" cy="13" r="0.5" fill="#ffffff" opacity="0.08"/>
    <circle cx="21" cy="13" r="0.5" fill="#ffffff" opacity="0.08"/>
    <circle cx="34" cy="13" r="0.5" fill="#ffffff" opacity="0.08"/>
    <circle cx="55" cy="13" r="0.5" fill="#ffffff" opacity="0.08"/>
    <circle cx="89" cy="13" r="0.5" fill="#ffffff" opacity="0.08"/>
    <circle cx="13" cy="21" r="0.5" fill="#ffffff" opacity="0.08"/>
    <circle cx="21" cy="21" r="0.5" fill="#ffffff" opacity="0.08"/>
    <circle cx="34" cy="21" r="0.5" fill="#ffffff" opacity="0.08"/>
    <circle cx="55" cy="21" r="0.5" fill="#ffffff" opacity="0.08"/>
    <circle cx="89" cy="21" r="0.5" fill="#ffffff" opacity="0.08"/>
    <circle cx="13" cy="34" r="0.5" fill="#ffffff" opacity="0.08"/>
    <circle cx="21" cy="34" r="0.5" fill="#ffffff" opacity="0.08"/>
    <circle cx="34" cy="34" r="0.5" fill="#ffffff" opacity="0.08"/>
    <circle cx="55" cy="34" r="0.5" fill="#ffffff" opacity="0.08"/>
    <circle cx="89" cy="34" r="0.5" fill="#ffffff" opacity="0.08"/>
    <circle cx="13" cy="55" r="0.5" fill="#ffffff" opacity="0.08"/>
    <circle cx="21" cy="55" r="0.5" fill="#ffffff" opacity="0.08"/>
    <circle cx="34" cy="55" r="0.5" fill="#ffffff" opacity="0.08"/>
    <circle cx="55" cy="55" r="0.5" fill="#ffffff" opacity="0.08"/>
    <circle cx="89" cy="55" r="0.5" fill="#ffffff" opacity="0.08"/>
    <circle cx="13" cy="89" r="0.5" fill="#ffffff" opacity="0.08"/>
    <circle cx="21" cy="89" r="0.5" fill="#ffffff" opacity="0.08"/>
    <circle cx="34" cy="89" r="0.5" fill="#ffffff" opacity="0.08"/>
    <circle cx="55" cy="89" r="0.5" fill="#ffffff" opacity="0.08"/>
    <circle cx="89" cy="89" r="0.5" fill="#ffffff" opacity="0.08"/>
</svg>
