<?xml version="1.0" encoding="UTF-8"?>
<svg xmlns="http://www.w3.org/2000/svg" viewBox="0 0 600 200" width="600" height="200" fill="none">
  <rect width="600" height="200" fill="#0a0a0d"/>
  <rect x="21" y="0" width="558" height="2" fill="#b87adb" opacity="0.377"/>
  
    <rect x="229" y="52" width="2" height="80" rx="1" fill="#b87adb" opacity="1"/>
    <rect x="229" y="52" width="26" height="2" rx="1" fill="#b87adb"/>
    <rect x="229" y="78" width="26" height="2" rx="1" fill="#b87adb"/>
    <rect x="253" y="52" width="2" height="29" rx="1" fill="#b87adb"/>
    <path d="M 255 52 Q 271 52 271 66 Q 271 81 255 81" fill="#b87adb"/>
    <rect x="253" y="106" width="2" height="2" rx="1" fill="#b87adb"/>
    <path d="M 255 81 Q 275 81 275 102 Q 275 132 255 132" fill="#b87adb" opacity="0.9"/>
    <g transform="translate(280, 52)">
      <path d="M 0 80 L 21 0 L 42 80 H 35 L 31 62 H 11 L 7 80 Z M 14 42 L 21 21 L 28 42 Z" fill="#b87adb"/>
    </g>
    <g transform="translate(329, 52)">
      <rect x="0" y="0" width="34" height="2" rx="1" fill="#b87adb"/>
      <rect x="0" y="78" width="34" height="2" rx="1" fill="#b87adb"/>
      <rect x="32" y="0" width="2" height="80" rx="1" fill="#b87adb" opacity="0.6"/>
      <line x1="0" y1="2" x2="32" y2="78" stroke="#b87adb" stroke-width="2" stroke-linecap="round"/>
    </g>
  <rect x="21" y="198" width="558" height="2" fill="#b87adb" opacity="0.377"/>
</svg>
